<svg xmlns="http://www.w3.org/2000/svg" viewBox="0 0 800 600" width="800" height="600">
  <!-- Dark code editor background -->
  <rect x="50" y="50" width="700" height="500" rx="10" fill="#1e1e1e" />
  
  <!-- Editor header -->
  <rect x="50" y="50" width="700" height="40" rx="10" fill="#333" />
  <circle cx="80" cy="70" r="8" fill="#ff5f56" />
  <circle cx="110" cy="70" r="8" fill="#ffbd2e" />
  <circle cx="140" cy="70" r="8" fill="#27c93f" />
  
  <!-- Code lines -->
  <rect x="70" y="120" width="300" height="15" rx="3" fill="#569cd6" opacity="0.7" />
  <rect x="70" y="150" width="400" height="15" rx="3" fill="#9cdcfe" opacity="0.7" />
  <rect x="100" y="180" width="350" height="15" rx="3" fill="#ce9178" opacity="0.7" />
  <rect x="100" y="210" width="250" height="15" rx="3" fill="#ce9178" opacity="0.7" />
  <rect x="70" y="240" width="200" height="15" rx="3" fill="#9cdcfe" opacity="0.7" />
  <rect x="70" y="270" width="350" height="15" rx="3" fill="#569cd6" opacity="0.7" />
  <rect x="100" y="300" width="400" height="15" rx="3" fill="#dcdcaa" opacity="0.7" />
  <rect x="100" y="330" width="300" height="15" rx="3" fill="#9cdcfe" opacity="0.7" />
  <rect x="100" y="360" width="350" height="15" rx="3" fill="#ce9178" opacity="0.7" />
  <rect x="70" y="390" width="250" height="15" rx="3" fill="#569cd6" opacity="0.7" />
  
  <!-- Suggestion popup -->
  <rect x="400" y="300" width="250" height="120" rx="5" fill="#252525" stroke="#454545" stroke-width="1" />
  <rect x="410" y="310" width="230" height="25" rx="3" fill="#0e639c" opacity="0.8" />
  <rect x="410" y="345" width="230" height="25" rx="3" fill="#3a3a3a" opacity="0.8" />
  <rect x="410" y="380" width="230" height="25" rx="3" fill="#3a3a3a" opacity="0.8" />
  
  <!-- AI icon -->
  <circle cx="650" cy="150" r="40" fill="#0e639c" opacity="0.9" />
  <path d="M650 120 L650 180 M630 130 L670 170 M670 130 L630 170 M630 150 L670 150" stroke="white" stroke-width="4" stroke-linecap="round" />
</svg>