<svg xmlns="http://www.w3.org/2000/svg" viewBox="0 0 800 600" width="800" height="600">
  <!-- Background -->
  <rect x="0" y="0" width="800" height="600" fill="#f5f7fa" />
  
  <!-- Video call grid -->
  <rect x="50" y="50" width="700" height="400" rx="10" fill="#fff" stroke="#e1e4e8" stroke-width="2" />
  
  <!-- Video call header -->
  <rect x="50" y="50" width="700" height="50" rx="10" fill="#0366d6" />
  <circle cx="700" cy="75" r="15" fill="#fff" opacity="0.8" />
  <rect x="670" y="70" width="20" height="10" rx="2" fill="#0366d6" />
  
  <!-- Participant 1 (main) -->
  <rect x="70" y="120" width="420" height="310" rx="8" fill="#2188ff" opacity="0.1" stroke="#2188ff" stroke-width="2" />
  <circle cx="280" cy="230" r="60" fill="#2188ff" opacity="0.6" />
  <path d="M280 190 Q310 190 310 230 Q310 270 280 270 Q250 270 250 230 Q250 190 280 190" fill="#2188ff" />
  <circle cx="280" cy="180" r="30" fill="#2188ff" />
  
  <!-- Participant 2 -->
  <rect x="510" y="120" width="220" height="150" rx="8" fill="#f97583" opacity="0.1" stroke="#f97583" stroke-width="2" />
  <circle cx="620" cy="170" r="30" fill="#f97583" opacity="0.6" />
  <path d="M620 150 Q635 150 635 170 Q635 190 620 190 Q605 190 605 170 Q605 150 620 150" fill="#f97583" />
  <circle cx="620" cy="145" r="15" fill="#f97583" />
  
  <!-- Participant 3 -->
  <rect x="510" y="280" width="220" height="150" rx="8" fill="#ffea7f" opacity="0.3" stroke="#ffea7f" stroke-width="2" />
  <circle cx="620" cy="330" r="30" fill="#ffea7f" opacity="0.6" />
  <path d="M620 310 Q635 310 635 330 Q635 350 620 350 Q605 350 605 330 Q605 310 620 310" fill="#d1b047" />
  <circle cx="620" cy="305" r="15" fill="#d1b047" />
  
  <!-- Document editing panel -->
  <rect x="150" y="470" width="500" height="80" rx="5" fill="#fff" stroke="#e1e4e8" stroke-width="2" />
  <rect x="170" y="485" width="300" height="10" rx="2" fill="#0366d6" opacity="0.7" />
  <rect x="170" y="505" width="460" height="10" rx="2" fill="#586069" opacity="0.3" />
  <rect x="170" y="525" width="380" height="10" rx="2" fill="#586069" opacity="0.3" />
  
  <!-- Control buttons -->
  <circle cx="250" cy="420" r="15" fill="#28a745" />
  <rect x="245" y="415" width="10" height="10" fill="#fff" />
  
  <circle cx="300" cy="420" r="15" fill="#0366d6" />
  <path d="M295 415 L295 425 M305 415 L305 425" stroke="#fff" stroke-width="2" />
  
  <circle cx="350" cy="420" r="15" fill="#d73a49" />
  <path d="M345 420 L355 420" stroke="#fff" stroke-width="2" />
  
  <circle cx="400" cy="420" r="15" fill="#6f42c1" />
  <path d="M395 415 L405 425 M405 415 L395 425" stroke="#fff" stroke-width="2" />
</svg>